HIERARCHY
ROOT Hips
{
	OFFSET 0.000000 0.000000 0.000000
	CHANNELS 6 Xposition Yposition Zposition Yrotation Xrotation Zrotation
	JOINT Chest
	{
		OFFSET 0.000000 -0.009281 11.569106
		CHANNELS 3 Yrotation Xrotation Zrotation
		JOINT Chest2
		{
			OFFSET -0.000000 0.016865 9.269641
			CHANNELS 3 Yrotation Xrotation Zrotation
			JOINT Chest3
			{
				OFFSET -0.000000 0.000001 8.374491
				CHANNELS 3 Yrotation Xrotation Zrotation
				JOINT Chest4
				{
					OFFSET -0.000000 0.000001 8.374493
					CHANNELS 3 Yrotation Xrotation Zrotation
					JOINT Neck
					{
						OFFSET -0.000000 0.000002 12.152554
						CHANNELS 3 Yrotation Xrotation Zrotation
						JOINT Head
						{
							OFFSET -0.000000 0.040101 7.802319
							CHANNELS 3 Yrotation Xrotation Zrotation
							End Site
							{
								OFFSET -0.000000 0.020947 14.853096
							}
						}
					}
					JOINT RightCollar
					{
						OFFSET 2.894404 0.000001 6.791374
						CHANNELS 3 Yrotation Xrotation Zrotation
						JOINT RightShoulder
						{
							OFFSET 13.574684 0.000001 0.000000
							CHANNELS 3 Yrotation Xrotation Zrotation
							JOINT RightElbow
							{
								OFFSET 23.923903 0.000002 0.000000
								CHANNELS 3 Yrotation Xrotation Zrotation
								JOINT RightWrist
								{
									OFFSET 19.846718 0.012767 0.000000
									CHANNELS 3 Yrotation Xrotation Zrotation
									End Site
									{
										OFFSET 14.973145 0.000001 0.000000
									}
								}
							}
						}
					}
					JOINT LeftCollar
					{
						OFFSET -2.894404 0.000001 6.791374
						CHANNELS 3 Yrotation Xrotation Zrotation
						JOINT LeftShoulder
						{
							OFFSET -13.574684 -0.000001 0.000000
							CHANNELS 3 Yrotation Xrotation Zrotation
							JOINT LeftElbow
							{
								OFFSET -23.923903 -0.000002 0.000000
								CHANNELS 3 Yrotation Xrotation Zrotation
								JOINT LeftWrist
								{
									OFFSET -19.846718 0.012763 0.000000
									CHANNELS 3 Yrotation Xrotation Zrotation
									End Site
									{
										OFFSET -14.973145 -0.000001 0.000000
									}
								}
							}
						}
					}
				}
			}
		}
	}
	JOINT RightHip
	{
		OFFSET 9.469263 0.004643 0.045487
		CHANNELS 3 Yrotation Xrotation Zrotation
		JOINT RightKnee
		{
			OFFSET 0.000000 0.002661 -40.478676
			CHANNELS 3 Yrotation Xrotation Zrotation
			JOINT RightAnkle
			{
				OFFSET 0.000000 0.049106 -35.224068
				CHANNELS 3 Yrotation Xrotation Zrotation
				JOINT RightToe
				{
					OFFSET -0.000001 12.539529 -6.151390
					CHANNELS 3 Yrotation Xrotation Zrotation
					End Site
					{
						OFFSET -0.000001 5.044994 -1.291870
					}
				}
			}
		}
	}
	JOINT LeftHip
	{
		OFFSET -9.469263 0.004641 0.045487
		CHANNELS 3 Yrotation Xrotation Zrotation
		JOINT LeftKnee
		{
			OFFSET 0.000000 0.002661 -40.478676
			CHANNELS 3 Yrotation Xrotation Zrotation
			JOINT LeftAnkle
			{
				OFFSET 0.000000 0.049106 -35.224068
				CHANNELS 3 Yrotation Xrotation Zrotation
				JOINT LeftToe
				{
					OFFSET -0.000001 12.539529 -6.151390
					CHANNELS 3 Yrotation Xrotation Zrotation
					End Site
					{
						OFFSET -0.000001 5.044994 -1.291870
					}
				}
			}
		}
	}
}
MOTION
Frames: 9
Frame Time: 0.016667
71.044579 -26.362761 80.675911 11.546636 1.407886 -121.118857 -12.103854 -11.116871 -1.873027 -5.506251 -4.899569 -1.124438 -5.506254 -4.899569 -1.124438 -4.136215 -3.664923 -0.887135 -1.209842 -13.331640 13.596796 3.073276 10.474300 25.213411 9.178180 -2.959756 -4.098552 64.811132 -29.066864 -8.761606 -4.351343 -74.440108 68.165575 -2.900915 13.660804 47.081525 -9.438648 -5.527730 -7.711720 -57.587866 -22.896932 20.098713 -72.747238 -56.666398 -5.871420 37.906235 13.707506 -34.092831 12.625255 15.566751 -9.592926 5.282587 -0.005521 -10.333198 -0.031055 2.066866 2.286583 -0.870507 -0.774139 0.199537 5.910618 34.790456 2.861059 -3.421708 -4.143717 22.514499 -0.940570 -11.093277 3.296759 -0.125917 0.379573 -0.038368 
71.230179 -26.480694 80.657593 11.674136 1.325886 -121.186831 -12.012903 -11.042209 -1.913121 -5.462110 -4.882669 -1.144790 -5.462110 -4.882669 -1.144787 -4.103280 -3.652134 -0.901892 -1.191169 -13.205893 13.593629 3.132603 10.701382 25.234141 9.110234 -3.082196 -4.055041 64.717074 -28.908598 -8.739910 -4.547000 -74.528183 68.369483 -2.945090 13.631610 47.095097 -9.501188 -5.592972 -7.685432 -57.692654 -23.003047 20.011922 -72.729466 -56.369128 -5.795847 37.813041 13.680229 -34.346300 12.743953 15.544524 -9.427788 5.371816 -0.197310 -10.179262 -0.054563 2.410860 1.975256 -0.638295 -0.703712 0.233187 6.289114 34.882555 3.297124 -3.372109 -4.150233 22.167784 -0.863904 -11.443266 3.145120 -0.309985 0.446080 -0.046423 
71.416817 -26.621136 80.637794 11.734106 1.216666 -121.259722 -11.944291 -10.934853 -1.916340 -5.428319 -4.860474 -1.153391 -5.428321 -4.860471 -1.153388 -4.077999 -3.635471 -0.907873 -1.128601 -13.103497 13.594129 3.270656 10.876088 25.275638 9.095334 -3.217237 -4.076583 64.635685 -28.828968 -8.746690 -4.967282 -74.540477 68.777095 -3.012073 13.608988 47.031190 -9.566542 -5.670251 -7.662262 -57.728684 -23.040327 19.961255 -72.670822 -56.298398 -5.748661 37.735303 13.761570 -34.540280 12.886329 15.451720 -9.324730 5.433976 -0.395051 -9.898987 -0.249157 2.715860 1.636514 -0.329942 -0.612257 0.254087 6.631668 34.870667 3.885484 -3.228077 -4.083375 21.875219 -0.760773 -11.834216 2.878923 -0.465911 0.477485 -0.046206 
71.641815 -26.791880 80.621834 11.683717 1.042031 -121.309719 -11.874903 -10.893312 -1.907011 -5.401629 -4.843130 -1.144820 -5.401630 -4.843126 -1.144819 -4.057913 -3.622585 -0.901083 -1.033266 -13.004239 13.576012 3.462605 11.041157 25.294808 9.126333 -3.310872 -4.171433 64.527980 -28.791979 -8.717287 -5.167065 -74.545006 69.002211 -3.097115 13.585914 46.912604 -9.596732 -5.714393 -7.673380 -57.722769 -23.013477 19.932765 -72.611878 -56.356236 -5.726384 37.643471 13.867309 -34.659740 13.013772 15.194890 -9.283438 5.456950 -0.595724 -9.567510 -0.471262 3.061154 1.341074 -0.032003 -0.551703 0.207758 6.994647 34.792789 4.485116 -3.069909 -4.044459 21.768680 -0.671441 -12.206585 2.581453 -0.557417 0.461646 -0.039078 
71.924713 -26.967596 80.610207 11.554547 0.825388 -121.377420 -11.795468 -10.887302 -1.871545 -5.368549 -4.832434 -1.124686 -5.368550 -4.832440 -1.124689 -4.032948 -3.614805 -0.885638 -0.933168 -12.912970 13.533785 3.652991 11.194382 25.269408 9.176396 -3.317043 -4.265970 64.398445 -28.711141 -8.689615 -5.071768 -74.613991 68.977131 -3.202858 13.591346 46.776226 -9.620887 -5.679056 -7.689429 -57.696746 -22.962311 19.928501 -72.637409 -56.369039 -5.663314 37.502554 13.868189 -34.769549 13.101121 14.853261 -9.115990 5.498191 -0.871871 -9.551610 -0.696789 3.470567 1.262660 0.223082 -0.501012 0.117647 7.511571 34.738783 5.177870 -2.996335 -4.076482 21.803919 -0.599056 -12.573431 2.357706 -0.590200 0.416743 -0.024651 
72.236336 -27.146927 80.601753 11.387907 0.572136 -121.479436 -11.678471 -10.862454 -1.807375 -5.319039 -4.823202 -1.101112 -5.319041 -4.823197 -1.101106 -3.995640 -3.608160 -0.867491 -0.845161 -12.842993 13.474961 3.810202 11.313770 25.204697 9.211838 -3.309060 -4.317559 64.270898 -28.610995 -8.661553 -4.802448 -74.692005 68.786746 -3.363942 13.637247 46.652798 -9.656348 -5.577955 -7.666505 -57.662800 -22.916091 19.934549 -72.756186 -56.293507 -5.528948 37.272308 13.740833 -34.896263 13.167176 14.508992 -8.736579 5.579557 -1.279574 -9.713757 -0.965175 3.946754 1.132822 0.454485 -0.445492 0.051021 8.191207 34.732192 5.893826 -2.966509 -4.151747 21.919452 -0.620006 -12.949207 2.254881 -0.559073 0.337310 -0.009454 
72.574371 -27.339079 80.592079 11.165332 0.260123 -121.585823 -11.514274 -10.834882 -1.736395 -5.248092 -4.812911 -1.074706 -5.248095 -4.812909 -1.074701 -3.942244 -3.600789 -0.847040 -0.769095 -12.794998 13.405549 3.936536 11.397133 25.111764 9.222173 -3.308923 -4.341259 64.162271 -28.554393 -8.639186 -4.524758 -74.735752 68.571698 -3.589923 13.753476 46.555717 -9.682699 -5.494545 -7.618256 -57.634933 -22.830259 19.905077 -72.897496 -56.189203 -5.371032 36.943858 13.503632 -35.002271 13.236872 14.135010 -8.241158 5.702665 -1.812897 -9.766532 -1.310652 4.472510 0.725327 0.667605 -0.373502 0.019125 8.993442 34.684493 6.632450 -2.968460 -4.181156 22.000027 -0.763389 -13.370547 2.259225 -0.454409 0.234804 0.000531 
72.944580 -27.546824 80.578575 10.883350 -0.100226 -121.663414 -11.318907 -10.793462 -1.673582 -5.158603 -4.795364 -1.049166 -5.158603 -4.795363 -1.049164 -3.874950 -3.587988 -0.827044 -0.690736 -12.763660 13.334372 4.062992 11.449820 25.013742 9.216437 -3.347166 -4.354402 64.074250 -28.549024 -8.616645 -4.191722 -74.736968 68.288580 -3.884443 13.914436 46.468909 -9.700871 -5.459672 -7.573215 -57.647364 -22.715652 19.880626 -72.934652 -56.151282 -5.297433 36.537646 13.285007 -35.049331 13.261379 13.700102 -7.984704 5.906927 -2.445919 -9.651347 -1.723077 5.033003 0.316190 0.859893 -0.288222 -0.000753 9.860986 34.544778 7.434515 -3.040410 -4.116233 22.031258 -0.976932 -13.847375 2.237328 -0.281344 0.134809 0.002116 
73.368538 -27.785231 80.560265 10.534333 -0.519030 -121.654070 -11.085549 -10.762956 -1.655576 -5.054431 -4.768777 -1.029003 -5.054433 -4.768780 -1.029009 -3.796689 -3.568384 -0.810897 -0.600246 -12.740687 13.261982 4.209972 11.484913 24.916907 9.214729 -3.410075 -4.391823 63.978990 -28.567930 -8.591366 -3.761785 -74.733731 67.919866 -4.244331 14.050121 46.356320 -9.727847 -5.439262 -7.545503 -57.687744 -22.617164 19.890952 -72.865667 -56.148311 -5.297378 36.048359 13.123592 -35.102296 13.274174 13.143129 -8.112031 6.118746 -3.108790 -9.497206 -2.145025 5.634194 0.132361 1.031975 -0.207841 -0.010986 10.683177 34.325802 8.159159 -3.137942 -4.024960 22.082268 -1.202712 -14.328499 2.172121 -0.097027 0.042810 -0.002616 
